<svg xmlns="http://www.w3.org/2000/svg"><symbol id="arrow-right" viewBox="0 0 24 24" fill="none" stroke="currentColor" stroke-width="1.7" stroke-linecap="square" stroke-linejoin="miter"><path d="M4 12h16m-6-6 6 6-6 6"/></symbol><symbol id="arrow-left" viewBox="0 0 24 24" fill="none" stroke="currentColor" stroke-width="1.7" stroke-linecap="square" stroke-linejoin="miter"><path d="M20 12H4m6-6-6 6 6 6"/></symbol><symbol id="arrow-up-right" viewBox="0 0 24 24" fill="none" stroke="currentColor" stroke-width="1.7" stroke-linecap="square" stroke-linejoin="miter"><path d="M6 18 18 6M6 6h12v12"/></symbol><symbol id="chevron-down" viewBox="0 0 24 24" fill="none" stroke="currentColor" stroke-width="1.7" stroke-linecap="square" stroke-linejoin="miter"><path d="m5 9 7 7 7-7"/></symbol><symbol id="check" viewBox="0 0 24 24" fill="none" stroke="currentColor" stroke-width="1.7" stroke-linecap="square" stroke-linejoin="miter"><path d="m4 12 5 5L20 6"/></symbol><symbol id="close" viewBox="0 0 24 24" fill="none" stroke="currentColor" stroke-width="1.7" stroke-linecap="square" stroke-linejoin="miter"><path d="m5 5 14 14M19 5 5 19"/></symbol><symbol id="plus" viewBox="0 0 24 24" fill="none" stroke="currentColor" stroke-width="1.7" stroke-linecap="square" stroke-linejoin="miter"><path d="M12 4v16M4 12h16"/></symbol><symbol id="minus" viewBox="0 0 24 24" fill="none" stroke="currentColor" stroke-width="1.7" stroke-linecap="square" stroke-linejoin="miter"><path d="M4 12h16"/></symbol><symbol id="menu" viewBox="0 0 24 24" fill="none" stroke="currentColor" stroke-width="1.7" stroke-linecap="square" stroke-linejoin="miter"><path d="M4 6h16M4 12h12M4 18h16"/></symbol><symbol id="code" viewBox="0 0 24 24" fill="none" stroke="currentColor" stroke-width="1.7" stroke-linecap="square" stroke-linejoin="miter"><path d="m8 6-6 6 6 6m8-12 6 6-6 6M14 3l-4 18"/></symbol><symbol id="terminal" viewBox="0 0 24 24" fill="none" stroke="currentColor" stroke-width="1.7" stroke-linecap="square" stroke-linejoin="miter"><path d="M3 3h15l3 3v15H3zM6 8l4 4-4 4m7 0h5"/></symbol><symbol id="gamepad" viewBox="0 0 24 24" fill="none" stroke="currentColor" stroke-width="1.7" stroke-linecap="square" stroke-linejoin="miter"><path d="M7 7h10l3 3 2 9-3 2-5-5h-4l-5 5-3-2 2-9zM7 9v6m-3-3h6m6-2h.01m2 3h.01"/></symbol><symbol id="sword" viewBox="0 0 24 24" fill="none" stroke="currentColor" stroke-width="1.7" stroke-linecap="square" stroke-linejoin="miter"><path d="m4 20 3-3m-3-4 7 7M7 14 17 4l4-1-1 4-10 10M16 5l3 3"/></symbol><symbol id="waveform" viewBox="0 0 24 24" fill="none" stroke="currentColor" stroke-width="1.7" stroke-linecap="square" stroke-linejoin="miter"><path d="M3 10v4m4-8v12m5-16v20m5-17v14m4-9v4"/></symbol><symbol id="play" viewBox="0 0 24 24" fill="none" stroke="currentColor" stroke-width="1.7" stroke-linecap="square" stroke-linejoin="miter"><path d="m7 4 14 8-14 8z"/></symbol><symbol id="pause" viewBox="0 0 24 24" fill="none" stroke="currentColor" stroke-width="1.7" stroke-linecap="square" stroke-linejoin="miter"><path d="M6 4h3v16H6zM15 4h3v16h-3z"/></symbol><symbol id="folder" viewBox="0 0 24 24" fill="none" stroke="currentColor" stroke-width="1.7" stroke-linecap="square" stroke-linejoin="miter"><path d="M3 5h7l3 3h8v12H3z"/></symbol><symbol id="briefcase" viewBox="0 0 24 24" fill="none" stroke="currentColor" stroke-width="1.7" stroke-linecap="square" stroke-linejoin="miter"><path d="M8 7V3h8v4M3 7h18v14H3zM3 12l9 4 9-4m-9 1v5"/></symbol><symbol id="mail" viewBox="0 0 24 24" fill="none" stroke="currentColor" stroke-width="1.7" stroke-linecap="square" stroke-linejoin="miter"><path d="M3 5h18v14H3zM3 6l9 7 9-7"/></symbol><symbol id="link" viewBox="0 0 24 24" fill="none" stroke="currentColor" stroke-width="1.7" stroke-linecap="square" stroke-linejoin="miter"><path d="m9 8 4-4h6l2 2v6l-4 4m-2 0-4 4H5l-2-2v-6l4-4m1 8 8-8"/></symbol><symbol id="download" viewBox="0 0 24 24" fill="none" stroke="currentColor" stroke-width="1.7" stroke-linecap="square" stroke-linejoin="miter"><path d="M12 3v12m-5-5 5 5 5-5M4 16v5h16v-5"/></symbol><symbol id="copy" viewBox="0 0 24 24" fill="none" stroke="currentColor" stroke-width="1.7" stroke-linecap="square" stroke-linejoin="miter"><path d="M8 8h13v13H8zM16 8V3H3v13h5"/></symbol><symbol id="search" viewBox="0 0 24 24" fill="none" stroke="currentColor" stroke-width="1.7" stroke-linecap="square" stroke-linejoin="miter"><circle cx="10" cy="10" r="6"/><path d="m15 15 6 6"/></symbol><symbol id="filter" viewBox="0 0 24 24" fill="none" stroke="currentColor" stroke-width="1.7" stroke-linecap="square" stroke-linejoin="miter"><path d="M3 4h18l-7 8v7l-4 2v-9z"/></symbol><symbol id="settings" viewBox="0 0 24 24" fill="none" stroke="currentColor" stroke-width="1.7" stroke-linecap="square" stroke-linejoin="miter"><path d="M4 6h16M4 12h16M4 18h16"/><path d="M8 3v6m8 0v6m-5 0v6"/></symbol><symbol id="user" viewBox="0 0 24 24" fill="none" stroke="currentColor" stroke-width="1.7" stroke-linecap="square" stroke-linejoin="miter"><circle cx="12" cy="7" r="4"/><path d="M3 21v-4l4-4h10l4 4v4"/></symbol><symbol id="calendar" viewBox="0 0 24 24" fill="none" stroke="currentColor" stroke-width="1.7" stroke-linecap="square" stroke-linejoin="miter"><path d="M3 5h18v16H3zM7 2v6m10-6v6M3 10h18m-14 4h3m4 0h3m-10 4h3"/></symbol><symbol id="clock" viewBox="0 0 24 24" fill="none" stroke="currentColor" stroke-width="1.7" stroke-linecap="square" stroke-linejoin="miter"><circle cx="12" cy="12" r="9"/><path d="M12 6v6l4 3"/></symbol><symbol id="globe" viewBox="0 0 24 24" fill="none" stroke="currentColor" stroke-width="1.7" stroke-linecap="square" stroke-linejoin="miter"><circle cx="12" cy="12" r="9"/><ellipse cx="12" cy="12" rx="4" ry="9"/><path d="M3 12h18"/></symbol><symbol id="bolt" viewBox="0 0 24 24" fill="none" stroke="currentColor" stroke-width="1.7" stroke-linecap="square" stroke-linejoin="miter"><path d="m14 2-11 12h8l-1 8L21 9h-8z"/></symbol><symbol id="chip" viewBox="0 0 24 24" fill="none" stroke="currentColor" stroke-width="1.7" stroke-linecap="square" stroke-linejoin="miter"><path d="M6 6h12v12H6zM9 9h6v6H9zM9 2v4m6-4v4M9 18v4m6-4v4M2 9h4m-4 6h4m12-6h4m-4 6h4"/></symbol><symbol id="branch" viewBox="0 0 24 24" fill="none" stroke="currentColor" stroke-width="1.7" stroke-linecap="square" stroke-linejoin="miter"><circle cx="6" cy="4" r="2"/><circle cx="6" cy="20" r="2"/><circle cx="18" cy="6" r="2"/><path d="M6 6v12m0-4h7l5-5V8"/></symbol><symbol id="star" viewBox="0 0 24 24" fill="none" stroke="currentColor" stroke-width="1.7" stroke-linecap="square" stroke-linejoin="miter"><path d="m12 2 3 7 7 1-5 5 1 7-6-4-6 4 1-7-5-5 7-1z"/></symbol><symbol id="heart" viewBox="0 0 24 24" fill="none" stroke="currentColor" stroke-width="1.7" stroke-linecap="square" stroke-linejoin="miter"><path d="M12 21 3 12V6l4-3 5 4 5-4 4 3v6z"/></symbol><symbol id="info" viewBox="0 0 24 24" fill="none" stroke="currentColor" stroke-width="1.7" stroke-linecap="square" stroke-linejoin="miter"><path d="m7 2-5 5v10l5 5h10l5-5V7l-5-5zM12 10v7m0-11v1"/></symbol><symbol id="warning" viewBox="0 0 24 24" fill="none" stroke="currentColor" stroke-width="1.7" stroke-linecap="square" stroke-linejoin="miter"><path d="M12 2 1 21h22zM12 8v6m0 3v1"/></symbol><symbol id="shield" viewBox="0 0 24 24" fill="none" stroke="currentColor" stroke-width="1.7" stroke-linecap="square" stroke-linejoin="miter"><path d="m12 2 9 4v8l-9 8-9-8V6zM7 12l3 3 7-7"/></symbol><symbol id="eye" viewBox="0 0 24 24" fill="none" stroke="currentColor" stroke-width="1.7" stroke-linecap="square" stroke-linejoin="miter"><path d="M1 12s4-7 11-7 11 7 11 7-4 7-11 7S1 12 1 12Z"/><circle cx="12" cy="12" r="3"/></symbol></svg>